<svg width="8.5in" height="11in" viewBox="0 0 8.5in 11in" xmlns="http://www.w3.org/2000/svg">
    <defs>
        <g id="blocKTemplate">
            <pattern id="grid" x="0" y="0" width="20" height="20" patternUnits="userSpaceOnUse">
                <rect width="22" height="22" stroke="#d6d6d6" fill="white" fill-opacity="0" stroke-width="1" />
            </pattern>

            <!-- Axle Guide Lines -->
            <line x1="1.625in" y1="0" x2="1.625in" y2="1.25in" stroke="#efefef" stroke-dasharray="5 5" stroke-width="0.0625in"/>
            <line x1="6in" y1="0" x2="6in" y2="1.25in" stroke="#efefef" stroke-dasharray="5 5" stroke-width="0.0625in"/>

            <!-- Side Profile Template -->
            <!-- Wheel Grooves -->
            <rect width=".0625in" height=".0625in" y="1.1875in" x="1.59375in" stroke="black" fill="white" fill-opacity="0"/>
            <rect width=".0625in" height=".0625in" y="1.1875in" x="5.96875in" stroke="black" fill="white" fill-opacity="0"/>
            <!-- Main Block -->
            <rect width="7in" height="1.25in" stroke-width="2" stroke="black" style="fill:url(#grid);" />

            <circle cx="1.625in" cy="1.25in" r="0.595in" fill="none" stroke="#d6d6d6" stroke-dasharray="5 5" />
            <circle cx="1.625in" cy="1.25in" r="0.35in" fill="none" stroke="#d6d6d6" stroke-dasharray="5 5" />

            <circle cx="6in" cy="1.25in" r="0.595in" fill="none" stroke="#d6d6d6" stroke-dasharray="5 5" />
            <circle cx="6in" cy="1.25in" r="0.35in" fill="none" stroke="#d6d6d6" stroke-dasharray="5 5" />
        </g>
    </defs>
    <rect width="8.5in" height="11in" stroke-width="2" stroke="#efefef" fill="white" fill-opacity="0" />
    <rect width="8in" height="10.5in" stroke-width="2" stroke="#efefef" fill="white" fill-opacity="0" transform="translate(24,24)" stroke-dasharray="5 5" />
    <g transform="translate(72,50)">
        <g>
            <use href="#blocKTemplate"/>
            <path
                style="fill:none;stroke:#000000;stroke-width:0.844666;stroke-opacity:1"
                d="m 4.0884523,120.07361 c 0,0 -3.73975256,-12.77282 -3.73975256,-21.332531 0,-8.559718 1.95289546,-8.565614 7.84396986,-11.389116 C 25.067835,79.263948 68.413727,68.000639 112.33473,56.940526 c 8.53738,-2.149864 11.44506,-2.606988 22.1723,-2.283255 22.6114,0.682377 57.78039,1.947804 104.3675,6.319651 C 301.75208,32.154405 370.30964,1.5294927 427.27442,1.0589249 521.47439,0.28076918 564.19296,41.523029 590.4813,39.18856 616.76964,36.854093 647.4394,14.287574 671.53705,0.28076912 666.06031,73.427412 671.47387,120.43162 594.79953,120.43162"
                id="path7948" />
        </g>
        <g transform="translate(0, 168)">
            <use href="#blocKTemplate"/>
            <path
                style="fill:none;stroke:#000000;stroke-opacity:1"
                d="m 17.985401,119.78104 c 0,0 -30.784359,-3.27278 -11.1706736,-6.59499 C 27.101686,109.7498 671.89806,0.25667659 671.89806,0.25667659"
                id="path16716" />
        </g>
        <g transform="translate(0, 336)">
            <use href="#blocKTemplate"/>
            <path
                style="fill:none;stroke:#000000;stroke-width:1.04688;stroke-opacity:1"
                d="M -0.77949053,120.55163 V 44.831443 H 273.74177 V 1.2038895 L 397.08009,1.4770643 491.50206,71.874368 H 671.40747 V 119.66802 71.874368"
                id="path18908" />
        </g><g transform="translate(0, 504)">
            <use href="#blocKTemplate"/>
            <path
                style="fill:none;stroke:#000000;stroke-opacity:1"
                d="M 102.74279,119.68443 C 67.766524,117.49841 74.94675,88.59254 94.545232,83.615147 128.975,74.871079 295.11229,24.59269 424.08728,17.488135 490.7608,91.266207 570.55041,50.27839 568.3644,0.54650423 665.64215,-2.732521 670.56069,48.092372 672.2002,80.336122 c 1.11149,21.859238 -12.02309,39.894808 -47.54587,39.894808"
                id="path21824" />
        </g><g transform="translate(0, 672)">
            <use href="#blocKTemplate"/>
            <path
                style="fill:none;stroke:#000000;stroke-opacity:1"
                d="M -1.6395127,119.13792 C 154.6607,80.336122 156.9385,30.581966 333.91408,33.883262 414.84185,35.392886 474.00971,66.885905 530.1091,64.487498 633.41282,60.070974 617.54978,19.127648 671.6537,0 c -1.093,39.894809 -20.77393,117.29981 -61.75498,118.04492 l -30.05774,0.5465"
                id="path24770" />
        </g><g transform="translate(0, 840)">
            <use href="#blocKTemplate"/>
            <path
                style="fill:none;stroke:#000000;stroke-opacity:1"
                d="m 20.767161,118.59142 c -25.6856991,0 -25.5303456,-16.0574 -10.9300852,-20.76716 C 26.778708,92.359217 220.78771,44.266843 241.00836,45.906355 c 15.84863,34.976272 74.66907,45.196178 96.73125,26.778707 21.16464,-17.6682 11.54782,-39.252373 12.0231,-45.906355 0.54651,-7.651059 -1.45376,-13.106079 18.58114,-13.662605 39.3483,-1.093009 107.72846,-3.7186198 194.009,47.545867 21.67845,12.880476 37.70879,22.953178 48.63888,8.744068 1.17902,-11.04189 2.18602,-20.220656 4.91854,-29.511228 -15.30211,-3.279026 -30.60424,-6.011547 -37.16229,-6.558051 34.42977,-13.116102 53.0109,-18.034639 92.3592,-28.4182199 -13.6626,11.4765889 -20.76714,19.6741519 -30.05771,27.3252119 2.18601,18.581143 6.01154,28.964723 19.12764,43.173833 18.03463,15.302119 17.48813,44.266847 -21.86017,44.266847 h -53.55742"
                id="path26960"
                 />
        </g>
    </g>
</svg>